# xmcd
#
# Track frame offsets: 
#        150
#        21972
#        41112
#        56190
#        78445
#        96002
#        114360
#        134567
#        153155
#        169432
#        195612
#
# Disc length: 3044 seconds
#
# Revision: 0
# Processed by: cddbd v1.5.2PL0 Copyright (c) Steve Scherf et al.
# Submitted via: ExactAudioCopy v1.0b3
#
DISCID=940be20b
DTITLE=Susan Osborn - 和楽 ＊ The Best Of Japan
DYEAR=1998
DGENRE=Vocal
TTITLE0=Lullabye of the Stars - 星のララバイ
TTITLE1=The Island - 知床旅情
TTITLE2=Autumn Song - 赤とんぼ
TTITLE3=Moon on the Deserted Castle - 荒城の月
TTITLE4=At The Shore - 浜辺の歌
TTITLE5=Aishu^ Hatoba - 哀愁波止場
TTITLE6=The Pearl - ザ・パール
TTITLE7=Crow - 七つの子
TTITLE8=Itsuki Lullabye - 五木の子守唄
TTITLE9=Graduation - 仰げば尊し
TTITLE10=Give Me Wings - 翼をください
EXTD=
EXTT0=
EXTT1=
EXTT2=
EXTT3=
EXTT4=
EXTT5=
EXTT6=
EXTT7=
EXTT8=
EXTT9=
EXTT10=
PLAYORDER=
